<svg xmlns="http://www.w3.org/2000/svg" width="51.691" height="40.615" viewBox="0 0 51.691 40.615">
    <defs>
        <style>
            .cls-1{fill:#fff}
        </style>
    </defs>
    <g id="Group_2562" data-name="Group 2562" transform="translate(0 -59.013)">
        <g id="Group_2561" data-name="Group 2561" transform="translate(0 59.013)">
            <path id="Path_694" d="M62.431 339.316a4.418 4.418 0 0 0 3.025-1.141l-14.645-14.646c-.351.252-.692.5-1.014.729q-1.644 1.211-2.668 1.889a16.443 16.443 0 0 1-2.726 1.385 8.309 8.309 0 0 1-3.173.706h-.057a8.307 8.307 0 0 1-3.173-.706 16.391 16.391 0 0 1-2.726-1.385q-1.024-.677-2.668-1.889c-.306-.224-.644-.47-1.011-.733l-14.649 14.649a4.419 4.419 0 0 0 3.025 1.141z" class="cls-1" data-name="Path 694" transform="translate(-15.356 -298.701)"/>
            <path id="Path_695" d="M2.914 201.065A15.293 15.293 0 0 1 0 198.555v22.282l12.908-12.908q-3.874-2.704-9.994-6.864z" class="cls-1" data-name="Path 695" transform="translate(0 -185.459)"/>
            <path id="Path_696" d="M423.327 201.065q-5.893 3.989-10.018 6.869l12.9 12.9v-22.279a15.918 15.918 0 0 1-2.882 2.51z" class="cls-1" data-name="Path 696" transform="translate(-374.521 -185.459)"/>
            <path id="Path_697" d="M47.081 59.013H4.621a4.119 4.119 0 0 0-3.418 1.5 5.82 5.82 0 0 0-1.2 3.75A6.741 6.741 0 0 0 1.592 68.2a14.311 14.311 0 0 0 3.375 3.331q.98.693 5.914 4.111a1394.715 1394.715 0 0 1 7.557 5.265l.431.307.8.573q.937.678 1.558 1.1t1.5.937a8.752 8.752 0 0 0 1.659.779 4.59 4.59 0 0 0 1.442.26h.057a4.591 4.591 0 0 0 1.442-.26 8.732 8.732 0 0 0 1.659-.779q.88-.519 1.5-.937t1.558-1.1l.795-.573c.208-.149.338-.242.431-.307l2.919-2.029q3.587-2.492 10.581-7.346a13.72 13.72 0 0 0 3.519-3.548 7.632 7.632 0 0 0 1.411-4.356 4.653 4.653 0 0 0-4.616-4.615z" class="cls-1" data-name="Path 697" transform="translate(-.005 -59.013)"/>
        </g>
    </g>
</svg>
