<svg xmlns="http://www.w3.org/2000/svg" width="40.707" height="40.615" viewBox="0 0 40.707 40.615">
    <defs>
        <style>
            .cls-1{fill:#fff}
        </style>
    </defs>
    <g id="Group_2565" data-name="Group 2565" transform="translate(0 -.394)">
        <g id="Group_2564" data-name="Group 2564" transform="translate(0 .394)">
            <g id="Group_2563" data-name="Group 2563">
                <path id="Path_698" d="M39.794 32.518l-6.287-6.288a3.278 3.278 0 0 0-4.622.087l-3.167 3.166c-.2-.11-.407-.225-.625-.348a31.518 31.518 0 0 1-7.618-5.51 31.693 31.693 0 0 1-5.521-7.632c-.117-.212-.23-.416-.341-.611l2.126-2.122 1.045-1.046a3.275 3.275 0 0 0 .084-4.622L8.582 1.306a3.274 3.274 0 0 0-4.622.087L2.189 3.175l.048.048A10.245 10.245 0 0 0 .778 5.8a10.677 10.677 0 0 0-.65 2.61C-.7 15.292 2.443 21.581 10.977 30.115c11.8 11.8 21.3 10.905 21.714 10.862a10.622 10.622 0 0 0 2.619-.658 10.211 10.211 0 0 0 2.566-1.454l.039.034 1.795-1.758a3.281 3.281 0 0 0 .084-4.623z" class="cls-1" data-name="Path 698" transform="translate(0 -.394)"/>
            </g>
        </g>
    </g>
</svg>
