<svg xmlns="http://www.w3.org/2000/svg" width="420.24" height="427.082" viewBox="0 0 420.24 427.082">
    <defs>
        <style>
            .cls-1{fill:#f7f9ff}.cls-2{fill:#27a1b1}.cls-3{fill:#27a2b2}.cls-4{fill:#90d2d9}.cls-5{fill:#6ebfc9}.cls-6{fill:#aecdd0}.cls-7{fill:#f3f6fd}.cls-8{fill:#176a71}.cls-9{fill:#1f92a3}.cls-10{fill:#bd065c}
        </style>
    </defs>
    <g id="Group_2570" data-name="Group 2570" transform="translate(-82 -1524.391)">
        <path id="shutterstock_1055620301" d="M20 0h380.24a20 20 0 0 1 20 20v407.082H0V20A20 20 0 0 1 20 0z" class="cls-1" transform="translate(82 1524.391)"/>
        <g id="Group_2557" data-name="Group 2557" transform="translate(44.424 3.216)">
            <g id="Group_2556" data-name="Group 2556" transform="translate(164.055 1700.63)">
                <g id="Group_2555" data-name="Group 2555" transform="translate(0 .108)">
                    <path id="Path_681" d="M891.4-354.811c-2.082 1.655-4.015 3.107-5.854 4.668-6.732 5.715-13.082 11.829-19.243 18.16-3.028 3.111-4.909 6.9-7.206 10.46-1.739 2.693-3.463 5.442-6.428 6.99a6.012 6.012 0 0 1-5.614.1c-1.819-.9-2.172-2.695-2.078-4.544.192-3.756 1.822-7.007 3.8-10.088a55.1 55.1 0 0 1 9.046-10.536 17.191 17.191 0 0 0 3.669-4.727c1.876-3.631 3.791-7.243 5.675-10.87a7.529 7.529 0 0 0 .372-1.152c-.819-.025-1.077.6-1.466 1-3.532 3.686-7.054 7.384-11.7 9.725-2.534 1.276-5.1 1.9-7.741.3a3.457 3.457 0 0 1-1.655-1.54c-.466-1.25-1.16-.936-1.992-.465a23.483 23.483 0 0 1-10.017 3.047c-5.457.378-9.787-2.375-10.656-8.044a35.854 35.854 0 0 1 .791-12.83 102.719 102.719 0 0 1 7.338-21.67 112.624 112.624 0 0 1 12.843-21.566 86.227 86.227 0 0 1 11-12.532c2.35-2.091 4.812-4.014 8.083-4.591 3.933-.693 8 2.541 6.97 6.793-1.231 5.09-3.688 9.592-6.384 13.993a248.927 248.927 0 0 1-17.79 24.869q-6.832 8.579-14.016 16.867c-2.581 2.965-1.722 9.157 1.511 10.629 2.834 1.291 5.521.48 7.982-1.146a17.908 17.908 0 0 0 6.346-6.606c3.283-6.2 6.984-12.168 10.473-18.255 1.257-2.193 2.366-4.469 3.6-6.676 1-1.8 1.717-2.163 2.927-1.682 2.047.814 3.2 2.536 2.735 4.256a31.618 31.618 0 0 1-2.735 6.124c-3.383 6.584-7.243 12.921-10.21 19.719-.359.823-1.022 1.9-.273 2.509s1.68-.3 2.406-.794c5.237-3.557 9.68-8.006 14.034-12.556a103.353 103.353 0 0 0 12.779-16.3 10.307 10.307 0 0 1 2.326-2.68 4.365 4.365 0 0 1 6.231 1.479 1.48 1.48 0 0 1-.235 1.47c-2.229 3.891-4.437 7.794-6.7 11.663-5.254 8.968-10.392 18-15.115 27.261a5.417 5.417 0 0 0-.815 2.463c2.5-2.192 4.782-4.153 7.018-6.167 5-4.5 9.842-9.185 15.028-13.456a6.494 6.494 0 0 0 2.272-4.156 113.145 113.145 0 0 1 8.877-24.384 118.19 118.19 0 0 1 18.079-26.541c2.967-3.338 6.145-6.457 10.38-8.227a6.445 6.445 0 0 1 8.108 2.188c1.218 1.83.822 3.81.27 5.68a54.462 54.462 0 0 1-6.149 12.722 235.921 235.921 0 0 1-14.763 20.949c-5.324 6.931-10.934 13.629-16.66 20.23-2.638 3.04-2.093 9.094 1.166 10.774 2.707 1.4 5.4.665 7.879-.849a32.816 32.816 0 0 0 5.9-4.9 2.9 2.9 0 0 0 .565-.82 169.885 169.885 0 0 1 8.731-15.466c.84-1.405.944-2.524-.361-3.646-1.034-.889-1.067-1.73-.079-2.839a33.894 33.894 0 0 1 8.971-7.654c2.431-1.317 3.407-1.135 5.219.929a3.027 3.027 0 0 1 .534 3.795c-2.425 4.556-4.974 9.044-7.418 13.588-2.556 4.752-5.649 9.2-7.889 14.128a5.817 5.817 0 0 0-.453 2.23c-.055 1.3.684 1.8 1.825 1.929a8.165 8.165 0 0 0 5.565-1.444 41.21 41.21 0 0 0 7.014-6.263c.787-.83 1.6-1.641 2.433-2.421.751-.7 1.324-.429 1.576.472a9.619 9.619 0 0 1 .287 1.988c.066 1.062.1 2.053 1.452 2.385.587.145.524.779.523 1.341a3.158 3.158 0 0 0 3.178 3.464 27.936 27.936 0 0 0 13.271-2.969 6.758 6.758 0 0 0 2.023-1.568c.887-1.056.776-1.914-.422-2.571a22.63 22.63 0 0 0-5.55-1.751 71.934 71.934 0 0 1-10.549-3.006c-3.884-1.63-5.234-5.12-3.815-9.394 1.4-4.227 4.586-6.968 8.07-9.353a49.109 49.109 0 0 1 14.34-6.506 33.765 33.765 0 0 1 9.955-1.629 10.425 10.425 0 0 1 3.607.792c2.442.949 3.116 3.524 2.111 6.589-.98 2.988-3.478 4.1-6.019 5.2a11.443 11.443 0 0 1-1.648.492 3.679 3.679 0 0 1-3.912-1.339c-.582-.814.077-1.348.454-1.914.589-.885.6-1.35-.671-1.27a24.642 24.642 0 0 0-9.969 3.2 27.267 27.267 0 0 0-8.138 5.938c-1.4 1.6-1.184 2.428.926 2.926 2.227.525 4.5.871 6.739 1.331a35.048 35.048 0 0 1 9.551 3.2c4.917 2.622 5.907 7.423 2.583 11.889-2.362 3.175-5.648 5.075-9.137 6.665a37.044 37.044 0 0 1-12.626 3.241 14.451 14.451 0 0 1-8.3-1.684 4.613 4.613 0 0 1-2.244-2.7c-.372-1.233-.713-1.124-1.6-.382a22.292 22.292 0 0 1-10.935 4.926 9.406 9.406 0 0 1-9.187-3.828c-.669-.846-1.076-1.022-2.067-.381a24.013 24.013 0 0 1-12.151 4.135c-6.048.25-9.628-2.79-10.524-8.773-.074-.487-.139-.957-.258-1.76z" class="cls-2" data-name="Path 681" transform="translate(-773.263 426.065)"/>
                    <path id="Path_682" d="M677.912-387.462c1.832.315 2.8-.687 3.722-2.134 4.178-6.593 8.7-12.953 13.419-19.167.623-.819 1.536-1.418 1.953-2.7a129.042 129.042 0 0 1-16.726 1.593c-3.792.117-7.583.13-11.375-.006A29.332 29.332 0 0 1 658.417-412c-3.6-1.6-5.4-5.42-3.88-8.475a6.557 6.557 0 0 1 4.068-3.359c2.1-.639 4.287-1.443 6.515-.319.263.132.785 0 .651.524a.716.716 0 0 1-.8.476 3.242 3.242 0 0 0-2.735 1.5c-.581.676-.644 1.11.271 1.663 1.69 1.021 3.588.966 5.405 1.349 2.17.458 4.373.211 6.553.4a101.824 101.824 0 0 0 10.928-.033c4.49-.181 8.977-.414 13.443-.934 2.253-.262 4.5-.545 6.754-.825a2.565 2.565 0 0 0 1.258-.613 37 37 0 0 1 7.31-4.754 23.072 23.072 0 0 1 5.985-1.566 9.927 9.927 0 0 1 3.12 0 5.969 5.969 0 0 1 3.234 1.911 2.73 2.73 0 0 1 .038 3.66 12.625 12.625 0 0 1-4.6 3.694 31.2 31.2 0 0 1-12.616 3.511 1.115 1.115 0 0 0-.962.437c-4.365 5.723-8.585 11.551-12.716 17.443-1.78 2.538-3.44 5.159-5.183 7.722-.257.378-.549.732-.314 1.16.221.4.7.226 1.05.208 2.389-.117 4.722.435 7.087.607a2.865 2.865 0 0 1 2.356 1.656c.389.919-.179 1.8-.873 2.537-1.036 1.1-2.056 2.233-2.983 3.428a2.024 2.024 0 0 1-2.141.8c-3.24-.582-6.508-.226-9.762-.332a1.378 1.378 0 0 0-1.309.707c-2.116 3.418-4.2 6.853-6.352 10.251-1.977 3.127-4.052 6.192-6.021 9.323-1.74 2.765-3.389 5.587-5.09 8.377-.541.886-1.081 1.778-1.693 2.615a3.038 3.038 0 0 1-2.7 1.327 15.56 15.56 0 0 1-4.853-.917c-1.249-.487-1.571-2.061-.879-3.56a73.827 73.827 0 0 1 5-8.68c2.967-4.649 6.075-9.208 9.142-13.793 1.1-1.641 2.248-3.247 3.474-5.012a51.826 51.826 0 0 0-8.4.44c-2.131.236-4.3.01-6.432.4-1.3.239-2.661.113-3.9.69a1.154 1.154 0 0 1-1.443-.25 1.873 1.873 0 0 1-.482-2.122c1.3-2.608 2.68-5.193 5.134-6.952 1.281-.918 2.85-.718 4.29-.871 3.136-.335 6.293-.477 9.442-.7 2.026-.232 4.079.151 6.106-.211z" class="cls-2" data-name="Path 682" transform="translate(-652.773 427.097)"/>
                    <path id="Path_683" d="M1400.622-375.538a6.244 6.244 0 0 0 .972-.005c3.127-.741 4.774 1.317 6.525 3.329 1.2 1.377-.646 3.33-2.464 3.654-3.491.621-7.021.9-10.548 1.209-1.143.1-2.283.234-3.427.331a1.474 1.474 0 0 0-1.271.775c-4.884 8.3-9.727 16.629-14.147 25.191a97.594 97.594 0 0 0-4.661 9.961 14.975 14.975 0 0 0-.808 3.487c-.369 2.907 1.341 4.236 4.146 3.284a18.756 18.756 0 0 0 6.154-3.785c2.126-1.832 4.2-3.729 6.31-5.576 1.6-1.4 2.175-1.264 2.589.794.494 2.455.5 4.921-1.582 6.776-3.583 3.2-7.116 6.454-11.545 8.545a11.053 11.053 0 0 1-10.657-.348c-2.223-1.232-3.13-3.352-3.569-5.75-.813-4.434.753-8.411 2.455-12.306a210.718 210.718 0 0 1 15.692-28.7c.3-.479.989-1.043.642-1.621-.268-.447-.979.012-1.5-.007-2.308-.082-4.534.661-6.836.676a7.726 7.726 0 0 1-3.895-.6c-1.424-.763-1.561-1.611-.694-2.9a11.6 11.6 0 0 1 5.157-4.718 12.436 12.436 0 0 1 4.436-.973c2.871-.087 5.749.037 8.613-.326a1.9 1.9 0 0 0 1.475-.974 83.944 83.944 0 0 1 6.573-9.008c.743-.871 4.047-1.551 5.231-1.032a5.833 5.833 0 0 0 .9.4c1.125.275 1.4.968.87 1.915-.9 1.626-1.876 3.213-2.836 4.807-.54.9-1.122 1.769-1.666 2.663-.416.682-.3 1.046.594.977 1.058-.085 2.114-.113 2.772-.145z" class="cls-2" data-name="Path 683" transform="translate(-1157.972 398.085)"/>
                </g>
                <path id="Path_684" d="M1241.544-359.17c-.149 3.607-4.013 8.14-7.6 8.744-2.271.383-3.938-.872-3.554-3.792a9.874 9.874 0 0 1 7.52-8.075 2.926 2.926 0 0 1 3.634 3.123z" class="cls-3" data-name="Path 684" transform="translate(-1063.941 381.136)"/>
                <path id="Path_685" d="M708.767-367.33l11.375.006c-3.033.478-6.086.132-9.129.211a4.175 4.175 0 0 1-2.246-.217z" class="cls-4" data-name="Path 685" transform="translate(-692.635 384.657)"/>
                <path id="Path_686" d="M738.983-396.494c-.247.3-.591.271-.925.271h-9.205a.988.988 0 0 1-.8-.237z" class="cls-5" data-name="Path 686" transform="translate(-706.367 405.419)"/>
                <path id="Path_687" d="M724.928-289.606c-2.022.532-4.074.164-6.112.2 2.025-.447 4.076-.094 6.112-.2z" class="cls-6" data-name="Path 687" transform="translate(-699.789 329.349)"/>
                <path id="Path_688" d="M889.73-427.241h-3.12a5.375 5.375 0 0 1 3.12 0z" class="cls-5" data-name="Path 688" transform="translate(-819.242 427.472)"/>
                <path id="Path_689" d="M1100.849-355.487a62.988 62.988 0 0 1 2.442-6.878 91.947 91.947 0 0 1 11.475-20.556c3.327-4.6 6.625-9.225 10.378-13.5a12.785 12.785 0 0 1 2.325-2.106 1.156 1.156 0 0 1 1.325-.214c.427.264.331.781.257 1.188a16.716 16.716 0 0 1-2.064 5.14 244.606 244.606 0 0 1-16.653 24.971c-2.657 3.611-5.29 7.236-8.081 10.745a3.632 3.632 0 0 1-1.404 1.21z" class="cls-7" data-name="Path 689" transform="translate(-971.76 407.115)"/>
                <path id="Path_690" d="M860.125-355.73a65.521 65.521 0 0 1 3.386-9.176c3.46-8.585 8.886-15.966 14.3-23.349a66.488 66.488 0 0 1 8.128-9.739 3.329 3.329 0 0 1 .783-.627c.755-.351 1.386-.453 1.381.748a9.864 9.864 0 0 1-1.54 4.554A178.5 178.5 0 0 1 875-375.111c-4.291 6.2-8.827 12.209-13.428 18.174-.335.432-.572 1.01-1.447 1.207z" class="cls-7" data-name="Path 690" transform="translate(-800.388 407.099)"/>
            </g>
            <g id="Group_2550" data-name="Group 2550" transform="translate(81 1584)">
                <path id="Path_675" d="M193.33 194.025a94.723 94.723 0 0 1 57.243-36.758A63.894 63.894 0 0 0 175.3 259.623a94.723 94.723 0 0 1 18.03-65.598z" class="cls-8" data-name="Path 675" transform="translate(-103.2 -135.471)"/>
                <path id="Path_676" d="M141.338 197.462a94.723 94.723 0 0 1 24.339-63.525 63.893 63.893 0 0 0 0 127.05 94.719 94.719 0 0 1-24.339-63.525z" class="cls-9" data-name="Path 676" transform="translate(-98.4 -133.937)"/>
                <path id="Path_677" d="M154 275.958s-12.116-2.85-20.795-7.8c-7.718-4.4-13.416-13.668-13.416-13.668s-15.54 17.441-21.131 30.3c-2.517 5.788-1.006 12.634-1.006 12.634s5.474-6.268 11.627-9.5C126.725 278.753 154 275.958 154 275.958z" class="cls-10" data-name="Path 677" transform="translate(-97.205 -146.537)"/>
            </g>
        </g>
    </g>
</svg>
