<svg xmlns="http://www.w3.org/2000/svg" width="420.24" height="427.082" viewBox="0 0 420.24 427.082">
    <defs>
        <style>
            .cls-1{fill:#f7f9ff}.cls-2{fill:#0080c7}.cls-3{fill:#8c0e4a}.cls-4{fill:#3d3838}
        </style>
    </defs>
    <g id="Group_2573" data-name="Group 2573" transform="translate(-527.328 -1524.391)">
        <path id="shutterstock_296169182" d="M20 0h380.24a20 20 0 0 1 20 20v407.082H0V20A20 20 0 0 1 20 0z" class="cls-1" transform="translate(527.328 1524.391)"/>
        <g id="Group_168" data-name="Group 168" transform="translate(456.633 1222.203)">
            <g id="Group_166" data-name="Group 166" transform="translate(109.883 430.567)">
                <path id="Path_562" d="M308.1 497.929q4.388-4.457 12.356-4.457a19.737 19.737 0 0 1 8.306 1.825 20.617 20.617 0 0 1 6.955 5.2l9.925-8.913a23.665 23.665 0 0 0-6.414-6.079 30.7 30.7 0 0 0-8.677-3.814 38.955 38.955 0 0 0-10.3-1.317q-9.589 0-16.374 3.544a24.105 24.105 0 0 0-10.365 10.3 34.338 34.338 0 0 0-3.579 16.275v11.545q0 9.66 3.579 16.476a24.19 24.19 0 0 0 10.365 10.4 34.7 34.7 0 0 0 16.374 3.579 39.794 39.794 0 0 0 10.23-1.284 30.412 30.412 0 0 0 8.676-3.748 24.578 24.578 0 0 0 6.482-5.974l-9.925-9.589a20.336 20.336 0 0 1-6.888 5.537 18.729 18.729 0 0 1-8.373 1.959q-8.035 0-12.389-4.525t-4.356-12.83v-11.55q-.001-8.104 4.392-12.56z" class="cls-2" data-name="Path 562" transform="translate(-192.048 -453.296)"/>
                <path id="Path_563" d="M441.918 457.644a20.77 20.77 0 0 0-11.58 3.41 23.986 23.986 0 0 0-7.055 7.205v-37.692h-13.776v98.179h13.776V484.18q0-6.414 3.679-9.926t10.433-3.511q6.954 0 10.8 4.052t3.85 11.48v42.471h13.774v-42.54q0-13.637-6.244-21.1t-17.657-7.462z" class="cls-2" data-name="Path 563" transform="translate(-246.616 -430.567)"/>
                <path id="Path_564" d="M702.155 444.727h-13.773v20.391h-7.226v12.425h7.226v39.434q0 9.182 3.949 13.876t12.46 4.692h7.967v-13.1h-6.617a3.45 3.45 0 0 1-2.973-1.384 6.61 6.61 0 0 1-1.013-3.95v-39.569h10.6v-12.424h-10.6z" class="cls-2" data-name="Path 564" transform="translate(-370.582 -437.029)"/>
                <path id="Path_565" d="M130.883 444.727h-13.774v20.391h-7.226v12.425h7.226v39.434q0 9.182 3.949 13.876t12.459 4.692h7.967v-13.1h-6.617a3.447 3.447 0 0 1-2.971-1.384 6.614 6.614 0 0 1-1.012-3.95v-39.569h10.6v-12.424h-10.6z" class="cls-2" data-name="Path 565" transform="translate(-109.883 -437.029)"/>
                <path id="Rectangle_16" d="M0 0h34.405v13.774H0z" class="cls-2" data-name="Rectangle 16" transform="translate(49.884 56.246)"/>
                <path id="Path_566" d="M602.48 550.034h-37.554a37.553 37.553 0 1 1 37.554-37.552zm-37.554-61.752a24.2 24.2 0 1 0 0 48.4h24.2v-24.2a24.226 24.226 0 0 0-24.2-24.2z" class="cls-3" data-name="Path 566" transform="translate(-300.404 -450.811)"/>
                <path id="Path_567" d="M580.761 541.133a5.945 5.945 0 1 1-5.944-5.944 5.943 5.943 0 0 1 5.944 5.944z" class="cls-3" data-name="Path 567" transform="translate(-319.342 -478.311)"/>
                <path id="Path_568" d="M614.045 541.133a5.945 5.945 0 1 1-5.944-5.944 5.944 5.944 0 0 1 5.944 5.944z" class="cls-3" data-name="Path 568" transform="translate(-334.53 -478.311)"/>
            </g>
            <g id="Group_167" data-name="Group 167" transform="translate(211.081 538.557)">
                <path id="Path_569" d="M308.238 645.339a10.676 10.676 0 0 1-4.62 1.059c-5.114 0-7.589-3.463-7.589-8.344 0-4.785 2.947-8.416 7.9-8.416a10.43 10.43 0 0 1 3.913.778c.188.095.283.188.283.328a1.062 1.062 0 0 1-.047.235l-.33.922c-.072.188-.165.257-.307.257a.453.453 0 0 1-.237-.045 9.84 9.84 0 0 0-3.205-.659 5.235 5.235 0 0 0-3.8 1.46 7.034 7.034 0 0 0-1.839 5.093c0 3.536 1.558 6.673 5.211 6.673a7.176 7.176 0 0 0 2.994-.588V638.5h-2.476c-.3 0-.425-.044-.425-.421v-.9c0-.307.12-.38.425-.38h4.22c.354 0 .446.1.446.45v7.191a.812.812 0 0 1-.517.899z" class="cls-4" data-name="Path 569" transform="translate(-296.028 -629.402)"/>
                <path id="Path_570" d="M332.13 641.915a3.282 3.282 0 0 0-2.852-1.7c-1.815 0-3.183 1.6-3.183 4.41 0 2.59 1.2 4.2 2.9 4.2a3.538 3.538 0 0 0 3.136-2.383zm2.664 8.344h-.994a1.545 1.545 0 0 1-1.532-1.745h-.047a4.322 4.322 0 0 1-3.538 1.981c-3.253 0-4.69-2.759-4.69-5.728 0-3.937 2.333-6.152 5.022-6.152a4.012 4.012 0 0 1 3.159 1.437l.022-.777c0-.283.189-.4.45-.4h1.063c.279 0 .422.141.422.448v8.25a2.565 2.565 0 0 0 .117 1.06.4.4 0 0 0 .4.214h.167c.21 0 .33.047.33.307v.8c.002.235-.115.305-.351.305z" class="cls-4" data-name="Path 570" transform="translate(-308.792 -633.499)"/>
                <path id="Path_571" d="M354.046 640.147a.249.249 0 0 1-.08.173.224.224 0 0 1-.18.06h-.073a3.316 3.316 0 0 0-.68-.07 3.077 3.077 0 0 0-2.357 1.416v8.038c0 .306-.143.5-.447.5h-1.111c-.308 0-.45-.165-.45-.5v-10.42c0-.352.167-.47.45-.47h1.014c.306 0 .472.118.472.423l.023.8a3.331 3.331 0 0 1 2.712-1.485 3.768 3.768 0 0 1 .682.07c.141.024.189.142.189.284v.118z" class="cls-4" data-name="Path 571" transform="translate(-320.05 -633.498)"/>
                <path id="Path_572" d="M371.195 650.473h-1.016a.411.411 0 0 1-.328-.116.406.406 0 0 1-.117-.331l-.025-.731a5.678 5.678 0 0 1-3.723 1.413c-2.711 0-3.7-1.744-3.7-4.266v-6.884a.411.411 0 0 1 .47-.47h1.06a.415.415 0 0 1 .472.47v6.578c0 1.672.377 2.853 2.262 2.853a5.228 5.228 0 0 0 3.113-1.393v-8.038c0-.329.143-.47.447-.47h1.111c.3 0 .445.141.445.47v10.4c.001.35-.142.515-.471.515z" class="cls-4" data-name="Path 572" transform="translate(-326.262 -633.713)"/>
                <path id="Path_573" d="M392.346 637.549a3.355 3.355 0 0 0-2.781-1.649c-2.122 0-3.348 1.744-3.348 4.336 0 2.5 1.108 4.363 3.159 4.363a3.961 3.961 0 0 0 2.97-1.556zm1.65 8.416h-1.012c-.355 0-.5-.142-.5-.447l-.021-.85A4.714 4.714 0 0 1 389 646.2c-3.4 0-4.857-2.781-4.857-5.867 0-3.466 2.028-6.038 5.138-6.038a4.232 4.232 0 0 1 3.067 1.321v-5.751c0-.308.069-.45.378-.5l1.154-.164h.12c.237 0 .352.117.352.4v15.865c-.002.311-.144.499-.352.499z" class="cls-4" data-name="Path 573" transform="translate(-336.238 -629.205)"/>
                <path id="Path_574" d="M415.432 641.915a3.282 3.282 0 0 0-2.853-1.7c-1.818 0-3.182 1.6-3.182 4.41 0 2.59 1.2 4.2 2.9 4.2a3.539 3.539 0 0 0 3.136-2.383zm2.663 8.344h-.995a1.547 1.547 0 0 1-1.535-1.745h-.043a4.324 4.324 0 0 1-3.537 1.981c-3.256 0-4.692-2.759-4.692-5.728 0-3.937 2.332-6.152 5.019-6.152a4.017 4.017 0 0 1 3.164 1.437l.021-.777c0-.283.191-.4.449-.4h1.06c.284 0 .423.141.423.448v8.25a2.6 2.6 0 0 0 .118 1.06.4.4 0 0 0 .4.214h.166c.212 0 .332.047.332.307v.8c.005.235-.112.305-.345.305z" class="cls-4" data-name="Path 574" transform="translate(-346.806 -633.499)"/>
                <path id="Path_575" d="M447.151 631.619h-1.437v13.3h1.417c.281 0 .4.141.4.351v.755c0 .261-.069.377-.329.377h-5.023c-.258 0-.353-.116-.353-.353v-.8c0-.237.074-.331.353-.331h1.417v-13.3h-1.511c-.258 0-.353-.069-.353-.329v-.777c0-.234.095-.355.332-.355h5.09c.308 0 .4.12.4.33v.755c-.003.331-.097.377-.403.377z" class="cls-4" data-name="Path 575" transform="translate(-362.518 -629.64)"/>
                <path id="Path_576" d="M467.239 650.259h-1.106c-.309 0-.45-.165-.45-.5v-6.6c0-1.673-.423-2.876-2.311-2.876a5.358 5.358 0 0 0-3.25 1.367v8.111c0 .33-.143.494-.45.494h-1.108a.416.416 0 0 1-.339-.125.435.435 0 0 1-.11-.345v-10.441c0-.329.12-.47.449-.47h1.036c.281 0 .445.118.445.423l.026.733a6.054 6.054 0 0 1 3.866-1.416c2.71 0 3.748 1.652 3.748 4.219v6.932c.003.329-.116.494-.446.494z" class="cls-4" data-name="Path 576" transform="translate(-369.995 -633.498)"/>
                <path id="Path_577" d="M488.526 637.549a3.351 3.351 0 0 0-2.781-1.649c-2.122 0-3.348 1.744-3.348 4.336 0 2.5 1.109 4.363 3.159 4.363a3.962 3.962 0 0 0 2.97-1.556zm1.65 8.416h-1.012c-.357 0-.5-.142-.5-.447l-.023-.85a4.72 4.72 0 0 1-3.465 1.532c-3.4 0-4.858-2.781-4.858-5.867 0-3.466 2.028-6.038 5.14-6.038a4.234 4.234 0 0 1 3.065 1.321v-5.751c0-.308.07-.45.376-.5l1.156-.164h.118c.235 0 .353.117.353.4v15.865c.005.311-.136.499-.35.499z" class="cls-4" data-name="Path 577" transform="translate(-380.13 -629.205)"/>
                <path id="Path_578" d="M509.09 640.172c-2.544 0-3.32 2.238-3.32 4.31 0 2.17.73 4.458 3.23 4.458 2.472 0 3.348-2.169 3.348-4.36s-.8-4.408-3.253-4.408zm-.115 10.323c-3.654 0-5.281-2.593-5.281-5.966 0-3.323 1.91-5.914 5.422-5.914 3.657 0 5.306 2.521 5.306 5.94 0 3.322-1.936 5.94-5.447 5.94z" class="cls-4" data-name="Path 578" transform="translate(-390.796 -633.499)"/>
                <path id="Path_579" d="M537.142 650.259h-1.106c-.308 0-.449-.165-.449-.5v-6.6c0-1.673-.424-2.876-2.311-2.876a5.361 5.361 0 0 0-3.253 1.367v8.111c0 .33-.14.494-.446.494h-1.109a.41.41 0 0 1-.337-.125.428.428 0 0 1-.113-.345v-10.441c0-.329.12-.47.45-.47h1.032c.28 0 .447.118.447.423l.023.733a6.058 6.058 0 0 1 3.869-1.416c2.71 0 3.746 1.652 3.746 4.219v6.932c.004.329-.111.494-.443.494z" class="cls-4" data-name="Path 579" transform="translate(-401.895 -633.498)"/>
                <path id="Path_580" d="M558.287 643.161c0-1.6-.871-2.995-2.664-2.995a3.371 3.371 0 0 0-3.253 3.324h5.917zm1.274 1.7h-7.237c.071 2.24 1.343 3.984 3.723 3.984a8.324 8.324 0 0 0 2.831-.5.91.91 0 0 1 .235-.046.269.269 0 0 1 .281.211l.26.874a.242.242 0 0 1 .023.117c0 .141-.1.212-.283.306a9.523 9.523 0 0 1-3.605.683c-3.632 0-5.564-2.38-5.564-5.941 0-3.371 2.1-5.94 5.495-5.94a4.336 4.336 0 0 1 3.2 1.3 5.445 5.445 0 0 1 1.343 3.891v.4c.005.542-.09.659-.702.659z" class="cls-4" data-name="Path 580" transform="translate(-412.03 -633.497)"/>
                <path id="Path_581" d="M574.979 650.494a8.334 8.334 0 0 1-3.226-.755.335.335 0 0 1-.237-.3.3.3 0 0 1 .023-.142l.306-.85a.289.289 0 0 1 .15-.2.286.286 0 0 1 .251-.009 8.07 8.07 0 0 0 2.8.707c1.371 0 2.288-.66 2.288-1.768 0-.919-.682-1.414-1.765-1.836l-1.581-.616a3.238 3.238 0 0 1-2.428-2.969c0-2.076 1.884-3.135 3.961-3.135a6.993 6.993 0 0 1 3.064.66c.143.07.212.142.212.237a.665.665 0 0 1-.048.188l-.258.824c-.046.167-.141.237-.26.237a.737.737 0 0 1-.189-.047 6.991 6.991 0 0 0-2.472-.564c-1.251 0-1.935.658-1.935 1.459s.475 1.179 1.463 1.6l1.839.779a3.291 3.291 0 0 1 2.357 2.995c.006 2.163-1.813 3.505-4.315 3.505z" class="cls-4" data-name="Path 581" transform="translate(-421.746 -633.499)"/>
                <path id="Path_582" d="M591.757 647.189h-1.083c-.308 0-.472-.164-.472-.5v-10.414a.412.412 0 0 1 .472-.471h1.083c.307 0 .449.142.449.471V646.7c0 .33-.142.494-.449.494zm-.564-13.037a1.133 1.133 0 1 1 0-2.263 1.166 1.166 0 0 1 1.223 1.131 1.179 1.179 0 0 1-1.223 1.133z" class="cls-4" data-name="Path 582" transform="translate(-430.177 -630.429)"/>
                <path id="Path_583" d="M607.056 641.915a3.281 3.281 0 0 0-2.852-1.7c-1.818 0-3.185 1.6-3.185 4.41 0 2.59 1.2 4.2 2.9 4.2a3.539 3.539 0 0 0 3.138-2.383zm2.663 8.344h-.991a1.545 1.545 0 0 1-1.532-1.745h-.048a4.317 4.317 0 0 1-3.537 1.981c-3.254 0-4.691-2.759-4.691-5.728 0-3.937 2.334-6.152 5.021-6.152a4.012 4.012 0 0 1 3.161 1.437l.023-.777c0-.283.188-.4.447-.4h1.062c.281 0 .424.141.424.448v8.25a2.565 2.565 0 0 0 .117 1.06.4.4 0 0 0 .4.214h.166c.213 0 .332.047.332.307v.8c0 .235-.119.305-.354.305z" class="cls-4" data-name="Path 583" transform="translate(-434.252 -633.499)"/>
                <path id="Path_584" d="M645.087 645.339a10.684 10.684 0 0 1-4.619 1.059c-5.115 0-7.592-3.463-7.592-8.344 0-4.785 2.944-8.416 7.9-8.416a10.428 10.428 0 0 1 3.913.778c.189.095.283.188.283.328a.975.975 0 0 1-.049.235l-.329.922c-.072.188-.164.257-.307.257a.429.429 0 0 1-.233-.045 9.871 9.871 0 0 0-3.208-.659 5.234 5.234 0 0 0-3.8 1.46 7.025 7.025 0 0 0-1.839 5.093c0 3.536 1.555 6.673 5.209 6.673a7.173 7.173 0 0 0 3-.588V638.5h-2.477c-.306 0-.424-.044-.424-.421v-.9c0-.307.118-.38.424-.38h4.221c.35 0 .447.1.447.45v7.191a.812.812 0 0 1-.52.899z" class="cls-4" data-name="Path 584" transform="translate(-449.748 -629.402)"/>
                <path id="Path_585" d="M667.566 640.147a.232.232 0 0 1-.08.173.22.22 0 0 1-.178.06h-.073a3.324 3.324 0 0 0-.682-.07 3.08 3.08 0 0 0-2.357 1.416v8.038c0 .306-.141.5-.449.5h-1.108c-.307 0-.447-.165-.447-.5v-10.42c0-.352.164-.47.447-.47h1.014c.306 0 .472.118.472.423l.023.8a3.329 3.329 0 0 1 2.712-1.485 3.782 3.782 0 0 1 .682.07c.143.024.189.142.189.284v.118z" class="cls-4" data-name="Path 585" transform="translate(-463.125 -633.498)"/>
                <path id="Path_586" d="M679.773 640.172c-2.544 0-3.323 2.238-3.323 4.31 0 2.17.729 4.458 3.229 4.458 2.474 0 3.35-2.169 3.35-4.36s-.8-4.408-3.256-4.408zm-.118 10.323c-3.654 0-5.281-2.593-5.281-5.966 0-3.323 1.91-5.914 5.422-5.914 3.654 0 5.305 2.521 5.305 5.94-.001 3.322-1.931 5.94-5.445 5.94z" class="cls-4" data-name="Path 586" transform="translate(-468.686 -633.499)"/>
                <path id="Path_587" d="M707.608 650.473H706.6a.417.417 0 0 1-.332-.116.424.424 0 0 1-.118-.331l-.023-.731a5.683 5.683 0 0 1-3.726 1.413c-2.71 0-3.7-1.744-3.7-4.266v-6.884a.413.413 0 0 1 .117-.354.408.408 0 0 1 .354-.116h1.06a.412.412 0 0 1 .357.116.422.422 0 0 1 .118.354v6.578c0 1.672.375 2.853 2.262 2.853a5.227 5.227 0 0 0 3.11-1.393v-8.038c0-.329.141-.47.447-.47h1.109c.306 0 .449.141.449.47v10.4c-.002.35-.145.515-.476.515z" class="cls-4" data-name="Path 587" transform="translate(-479.783 -633.713)"/>
                <path id="Path_588" d="M726.683 640.218a3.962 3.962 0 0 0-2.993 1.509v5.539a3.422 3.422 0 0 0 2.85 1.652c2.429 0 3.279-2.309 3.279-4.41 0-2.05-.684-4.29-3.133-4.29zm.117 10.277a4.069 4.069 0 0 1-3.111-1.319v5.7c0 .355-.212.449-.518.449h-1.04c-.307 0-.447-.167-.447-.5V639.3c0-.329.14-.423.447-.423h.9c.353 0 .542.094.542.423v.827a4.8 4.8 0 0 1 3.511-1.509c3.35 0 4.834 2.8 4.834 5.845 0 3.132-1.699 6.032-5.118 6.032z" class="cls-4" data-name="Path 588" transform="translate(-490.276 -633.499)"/>
            </g>
        </g>
    </g>
</svg>
