<svg xmlns="http://www.w3.org/2000/svg" width="420.24" height="427.082" viewBox="0 0 420.24 427.082">
    <defs>
        <style>
            .cls-1{fill:#f7f9ff}.cls-2,.cls-6{fill:#001c50}.cls-3{fill:#09193d}.cls-4,.cls-5{fill:#008c9a}.cls-5,.cls-6{fill-rule:evenodd}
        </style>
    </defs>
    <g id="Group_2576" data-name="Group 2576" transform="translate(-1417.983 -1524.391)">
        <path id="shutterstock_195104423" d="M20 0h380.24a20 20 0 0 1 20 20v407.082H0V20A20 20 0 0 1 20 0z" class="cls-1" transform="translate(1417.983 1524.391)"/>
        <g id="ASITA_LOGO" data-name="ASITA LOGO" transform="translate(1324.454 1668.903)">
            <path id="Path_655" d="M600.115 803.515c-29.97 0-54.659 22.979-57.963 52.555a50.379 50.379 0 0 0 58.877-49.631c0-.978-.031-1.949-.087-2.914-.275-.004-.55-.01-.827-.01z" class="cls-2" data-name="Path 655" transform="translate(-358.756 -748.406)"/>
            <path id="Path_656" d="M605.07 645.748a63.416 63.416 0 0 1 2.569 7.381h22.78a50.3 50.3 0 0 0-37.86-21.81c4.841 1.609 9.193 6.581 12.511 14.429z" class="cls-2" data-name="Path 656" transform="translate(-396.276 -620.236)"/>
            <path id="Path_657" d="M520.533 652.731h29.9c-3.016-11.631-7.766-19.812-12.6-21.872a50.953 50.953 0 0 0-2.6-.074c-.683 0-1.362.017-2.038.044-4.852 2.013-9.632 10.216-12.662 21.902z" class="cls-2" data-name="Path 657" transform="translate(-342.664 -619.837)"/>
            <path id="Path_658" d="M388.1 730.042c0-.006.007.007.011 0h-.137a49.954 49.954 0 0 0-6.559 22.156h28.555a102.513 102.513 0 0 1 2.543-22.156z" class="cls-2" data-name="Path 658" transform="translate(-239.117 -693.716)"/>
            <path id="Path_659" d="M415.4 653.014h.1c0-.006.007.006.011 0h23.178a63.371 63.371 0 0 1 2.569-7.381c3.347-7.913 7.752-12.906 12.64-14.469a50.286 50.286 0 0 0-38.498 21.85z" class="cls-2" data-name="Path 659" transform="translate(-264.413 -620.12)"/>
            <path id="Path_660" d="M679.082 730.108l-.034-.061h-24.055c.217.922.531 2.6.844 4.38a66 66 0 0 1 23.245-4.319z" class="cls-3" data-name="Path 660" transform="translate(-442.747 -693.721)"/>
            <g id="Group_2548" data-name="Group 2548" transform="translate(172.899 40.061)">
                <path id="Path_661" d="M584.087 750l-3.372-5.342H567a65.915 65.915 0 0 0-58.154 96.926 66.06 66.06 0 0 1-1.736-15.087c0-12.849 4.041-29.521 10.04-39.875 11.81-20.384 30.686-31.015 58.186-31.015h5.764z" class="cls-4" data-name="Path 661" transform="translate(-501.095 -744.659)"/>
            </g>
            <path id="Path_662" d="M542.923 735.851c-.377-2.281-.778-4.546-1.052-5.8h-31.538a110.393 110.393 0 0 0-2.406 22.156h12.683a66.075 66.075 0 0 1 22.313-16.356z" class="cls-2" data-name="Path 662" transform="translate(-333.281 -693.721)"/>
            <path id="Path_663" d="M517.8 830.13h-9.812a120.677 120.677 0 0 0 1.182 14.743 65.45 65.45 0 0 1 8.63-14.743z" class="cls-2" data-name="Path 663" transform="translate(-333.326 -768.216)"/>
            <g id="Group_2549" data-name="Group 2549" transform="translate(142.23 61.911)">
                <path id="Path_664" d="M409.774 830.123h-28.3c0-.008 0 .008 0 0h-.328a50 50 0 0 0 5.43 22.156h25.977a100.807 100.807 0 0 1-2.779-22.156z" class="cls-2" data-name="Path 664" transform="translate(-381.141 -830.121)"/>
                <path id="Path_665" d="M431.045 944.692a65.523 65.523 0 0 1 1.614-14.479h-22.788a50.572 50.572 0 0 0 21.354 19.263 65.81 65.81 0 0 1-.18-4.784z" class="cls-2" data-name="Path 665" transform="translate(-402.525 -904.622)"/>
            </g>
            <path id="Path_666" d="M1320.084 842.191v-2.451h-3.521a5.31 5.31 0 0 0-5.305 5.3v2.188h3.788a5.046 5.046 0 0 0 5.038-5.038zm-8.859 14.487a5.334 5.334 0 0 1 5.323-5.324h3.535v31.669a10.555 10.555 0 0 1-3.1 7.526c-3.2 3.2-8.237 3.634-12.514 2.849 0-7.513 6.754-4.789 6.754-10.375z" class="cls-5" data-name="Path 666" transform="translate(-887.147 -772.138)"/>
            <path id="Path_667" d="M1047.16 845.319l-5.043.389c.014-4.151 0-8.152 0-12.306h-3.536a5.333 5.333 0 0 0-5.323 5.323v26.086a10.59 10.59 0 0 0 10.574 10.574h5.391c0-7.391-7.106-4.944-7.106-10.574v-13.139a5.334 5.334 0 0 0 5.075-5.56z" class="cls-6" data-name="Path 667" transform="translate(-707.618 -767.943)"/>
            <path id="Path_668" d="M917.1 869.991a8.159 8.159 0 0 0-2.789-3.8c-2.382-1.807-5.764-2.48-9.315-2.48-4.246 0-7.526.83-9.734 2.414a7.984 7.984 0 0 0-3.321 6.867 7.82 7.82 0 0 0 1.369 4.654 8.464 8.464 0 0 0 4.064 2.924c.893.319 1.873.629 3.077.956s2.62.669 4.37 1.049a12.845 12.845 0 0 1 3.92 1.343 2.258 2.258 0 0 1 1.092 2.106 2.983 2.983 0 0 1-1.262 2.508 5.6 5.6 0 0 1-3.3.887 6.271 6.271 0 0 1-3.777-.964l-.108-.084a7.367 7.367 0 0 0-7.261-1.291l-2.268.788a9.226 9.226 0 0 0 3.209 4.863c2.589 2.03 6.252 2.751 9.982 2.751 4.24 0 7.626-.974 9.946-2.754a9.091 9.091 0 0 0 3.552-7.535 7.549 7.549 0 0 0-5.324-7.757 56.127 56.127 0 0 0-7.83-2.127l-1.308-.293c-1.49-.333-3.375-.756-3.375-2.794a2.342 2.342 0 0 1 1.088-2.062 5.306 5.306 0 0 1 2.919-.682 5.751 5.751 0 0 1 3.164.72 7.321 7.321 0 0 0 6.959.7z" class="cls-6" data-name="Path 668" transform="translate(-614.017 -788.004)"/>
            <path id="Path_669" d="M798.612 871.418l-8.954-22.568-4.939 12.45 7.6-.342.071 1.567a5.336 5.336 0 0 1-5.074 5.56l-5.28.241v-.258l-1.329 3.345a5.4 5.4 0 0 1-5.1 3.466h-5.839l15.4-38.822a5.4 5.4 0 0 1 5.106-3.466h1.56l16.766 42.293h-4.885a5.4 5.4 0 0 1-5.103-3.466z" class="cls-6" data-name="Path 669" transform="translate(-533.195 -767.409)"/>
            <path id="Path_670" d="M1218.765 871.418l-8.954-22.568-4.939 12.454 7.6-.342.071 1.567a5.335 5.335 0 0 1-5.075 5.56l-5.28.241v-.258l-1.329 3.345a5.4 5.4 0 0 1-5.1 3.466h-5.839l15.4-38.822a5.4 5.4 0 0 1 5.106-3.466h1.56l16.775 42.288h-4.886a5.4 5.4 0 0 1-5.11-3.465z" class="cls-5" data-name="Path 670" transform="translate(-811.317 -767.409)"/>
            <path id="Path_671" d="M1370.695 870.256c1.3-3.613 4.32-5.108 7.89-5.826a20.609 20.609 0 0 1 10.651.534 8.674 8.674 0 0 1 5.255 5.39 11.156 11.156 0 0 1 .571 3.652v15.977c0 4.915-7.788 5.781-11.558 5.7-6.327-.134-14.329-2.849-14.329-10.268 0-8.308 10.243-11.063 17.149-11.177a4.157 4.157 0 0 0-1.968-3.782 4.22 4.22 0 0 0-4.514 0 7.268 7.268 0 0 1-6.906.7l-2.241-.9zm15.629 20.029l.092-11.2c-4.716-.02-8.82 3.488-8.82 6.333-.063 5.031 5.879 5.808 8.727 4.867z" class="cls-5" data-name="Path 671" transform="translate(-929.977 -788.189)"/>
            <path id="Path_672" d="M1089.5 870.256c1.3-3.613 4.32-5.108 7.89-5.826a20.608 20.608 0 0 1 10.651.534 8.675 8.675 0 0 1 5.255 5.39 11.166 11.166 0 0 1 .571 3.652v15.977c0 4.915-7.787 5.781-11.559 5.7-6.326-.134-14.328-2.848-14.328-10.268 0-8.308 10.243-11.063 17.148-11.177a4.156 4.156 0 0 0-1.968-3.782 4.219 4.219 0 0 0-4.513 0 7.27 7.27 0 0 1-6.906.7l-2.24-.9zm15.628 20.029l.093-11.2c-4.717-.021-8.82 3.488-8.82 6.333-.067 5.031 5.875 5.808 8.723 4.867z" class="cls-6" data-name="Path 672" transform="translate(-743.837 -788.189)"/>
            <path id="Path_673" d="M994.215 835.145v-2.453h-3.522a5.313 5.313 0 0 0-5.3 5.3v2.188h3.788a5.048 5.048 0 0 0 5.038-5.038zm0 9.165v25.3a5.318 5.318 0 0 1-5.3 5.3h-3.523v-25.562a5.046 5.046 0 0 1 5.036-5.038z" class="cls-6" data-name="Path 673" transform="translate(-675.929 -767.473)"/>
            <path id="Path_674" d="M863.676 711.04a10.86 10.86 0 0 0-6.127-1.115l-4.977.246c-2.613-2.588-8.017-7.949-8.755-8.762a10.1 10.1 0 0 0-3.505-2.654c-1.587-.643-3.467-.765-2.925.176.229.4 4.333 7.467 6.081 10.478l.674 1.178-.939.046h-.044l-9.047.443-2.326.115-2.129-2.877a1.742 1.742 0 0 0-1.417-.674l-1.48.087c-.949.056-.852.654-.767.8l3.8 6.215-3.04 6.621c-.067.158-.09.765.858.709l1.478-.089a1.743 1.743 0 0 0 1.328-.838l1.883-3.3 11.11-.23c-1.779 3.063-5.8 9.981-6.024 10.378-.541.943 1.338.821 2.926.178a10.092 10.092 0 0 0 3.505-2.655c.761-.838 6.472-6.5 8.984-8.987l1.171-.057c1.306-.065 11.972-.538 12.249-2.235.179-1.097-1.67-2.675-2.545-3.197z" class="cls-4" data-name="Path 674" transform="translate(-569.139 -669.542)"/>
        </g>
    </g>
</svg>
